<svg xmlns="http://www.w3.org/2000/svg" width="21.09" height="24" viewBox="0 0 21.09 24">
  <g id="icon_copper" transform="translate(0 0)">
    <path id="Path_31670" data-name="Path 31670" d="M0,6.57v10.86a1.14,1.14,0,0,0,.57.988l9.4,5.43a1.14,1.14,0,0,0,1.14,0l9.4-5.43a1.14,1.14,0,0,0,.57-.988V6.57a1.14,1.14,0,0,0-.57-.988l-9.4-5.43a1.14,1.14,0,0,0-1.14,0L.57,5.582A1.14,1.14,0,0,0,0,6.57" transform="translate(0 0)" fill="#d69472"/>
    <path id="Path_31671" data-name="Path 31671" d="M29.408,39.318v8.439a1.141,1.141,0,0,0,.57.988l7.309,4.22a1.14,1.14,0,0,0,1.14,0l7.308-4.22a1.14,1.14,0,0,0,.57-.988V39.318a1.14,1.14,0,0,0-.57-.988l-7.308-4.22a1.14,1.14,0,0,0-1.14,0l-7.309,4.22a1.14,1.14,0,0,0-.57.988" transform="translate(-27.312 -31.537)" fill="#9c5e40"/>
    <path id="Path_31672" data-name="Path 31672" d="M39.16,50.176v7.637a1.14,1.14,0,0,0,.57.988l6.613,3.818a1.14,1.14,0,0,0,1.14,0L54.1,58.8a1.14,1.14,0,0,0,.57-.988V50.176a1.14,1.14,0,0,0-.57-.988L47.484,45.37a1.14,1.14,0,0,0-1.14,0L39.73,49.189a1.14,1.14,0,0,0-.57.988" transform="translate(-36.369 -41.995)" fill="#f6bb9e"/>
    <path id="Path_31673" data-name="Path 31673" d="M64.3,120.733l6.422-11.123H57.879Z" transform="translate(-53.754 -101.797)" fill="#f6b88a"/>
    <path id="Path_31674" data-name="Path 31674" d="M68.47,110.848H59.376l-1.9-1.239H70.346Z" transform="translate(-53.376 -101.797)" fill="#f7d6c6"/>
    <path id="Path_31675" data-name="Path 31675" d="M59.753,110.85l4.541,7.866.006,2.016L57.879,109.61Z" transform="translate(-53.754 -101.797)" fill="#c36d3a"/>
    <path id="Path_31676" data-name="Path 31676" d="M152.517,110.85l-4.541,7.866-.006,2.016,6.421-11.122Z" transform="translate(-137.423 -101.797)" fill="#d68852"/>
  </g>
</svg>