<svg id="icon_rookie" xmlns="http://www.w3.org/2000/svg" width="21.079" height="24" viewBox="0 0 21.079 24">
  <path id="Path_31784" data-name="Path 31784" d="M0,6.57V17.43a1.14,1.14,0,0,0,.57.988l9.4,5.43a1.14,1.14,0,0,0,1.14,0l9.4-5.43a1.14,1.14,0,0,0,.57-.988V6.57a1.14,1.14,0,0,0-.57-.988l-9.4-5.43a1.14,1.14,0,0,0-1.14,0L.57,5.582A1.14,1.14,0,0,0,0,6.57" transform="translate(0 0)" fill="#65bcc2"/>
  <path id="Path_31785" data-name="Path 31785" d="M21.779,30.518v8.438a1.141,1.141,0,0,0,.57.988l7.309,4.22a1.14,1.14,0,0,0,1.14,0l7.308-4.22a1.14,1.14,0,0,0,.57-.988V30.518a1.14,1.14,0,0,0-.57-.988L30.8,25.31a1.141,1.141,0,0,0-1.14,0l-7.309,4.22a1.14,1.14,0,0,0-.57.988" transform="translate(-19.683 -22.736)" fill="#0c7d8f"/>
  <path id="Path_31786" data-name="Path 31786" d="M29,38.447v7.637a1.14,1.14,0,0,0,.57.988l6.613,3.818a1.14,1.14,0,0,0,1.14,0l6.617-3.819a1.141,1.141,0,0,0,.57-.988V38.447a1.141,1.141,0,0,0-.57-.988l-6.616-3.818a1.14,1.14,0,0,0-1.14,0L29.57,37.46a1.141,1.141,0,0,0-.57.988" transform="translate(-26.209 -30.266)" fill="#99dce6"/>
  <path id="Path_31787" data-name="Path 31787" d="M61.068,78.516s-4-2.331-3.112-5.378,4.021-3.4,5.379-4.144a5.178,5.178,0,0,0,1.847-1.524s3.384,3.367,1.34,7.154-5.1,3.076-5.1,3.076a2.538,2.538,0,0,1-.35-2.317c.38-1.54,2.607-3.041,2.607-3.041s-3.548,1.482-3.511,3.348a4.524,4.524,0,0,0,.9,2.825" transform="translate(-52.263 -60.978)" fill="#0c7d8f"/>
  <path id="Path_31788" data-name="Path 31788" d="M65.189,67.471c-.032.038-.012.168-.019.22a1.809,1.809,0,0,1-.105.38,3.016,3.016,0,0,1-.962,1.241c-1.046.854-2.438,1.1-3.578,1.8a4.749,4.749,0,0,0-1.858,2.122,3.334,3.334,0,0,0,.283,2.981,6.09,6.09,0,0,0,1.585,1.822c.183.156.364.315.54.48,0,0-3.288-1.944-3.239-4.562s2.243-3.573,3.417-4.115c1.113-.515,2.466-.58,3.935-2.367" transform="translate(-52.27 -60.978)" fill="#28a5b2"/>
  <path id="Path_31789" data-name="Path 31789" d="M94.532,67.785c.224.339.4.644.618.987a5.7,5.7,0,0,1,.481,4.283,5.524,5.524,0,0,1-1.823,2.933,9.455,9.455,0,0,1-1.1.766,3.164,3.164,0,0,1-1.232.363c-.219.032-.5.084-.671-.085a1.264,1.264,0,0,1-.262-.586,1.781,1.781,0,0,1,.006-1.176,8.178,8.178,0,0,1,2.285-2.929,9.033,9.033,0,0,0-2.4,2.5,2.764,2.764,0,0,0-.117,2.411,2.578,2.578,0,0,0,.25.438,4.351,4.351,0,0,0,1.342.012,5.262,5.262,0,0,0,3.344-2.32,5.8,5.8,0,0,0,.985-4.457,6.88,6.88,0,0,0-.979-2.359,10.246,10.246,0,0,0-.915-1.1s.094.168.191.314" transform="translate(-81.422 -60.977)" fill="#076872"/>
</svg>