<svg xmlns="http://www.w3.org/2000/svg" width="21.09" height="24" viewBox="0 0 21.09 24">
  <g id="icon_silver" transform="translate(0 0)">
    <path id="Path_31742" data-name="Path 31742" d="M0,6.57v10.86a1.14,1.14,0,0,0,.57.988l9.4,5.43a1.14,1.14,0,0,0,1.14,0l9.4-5.43a1.14,1.14,0,0,0,.57-.988V6.57a1.14,1.14,0,0,0-.57-.988l-9.4-5.43a1.14,1.14,0,0,0-1.14,0L.57,5.582A1.14,1.14,0,0,0,0,6.57" transform="translate(0 0)" fill="#a2aeb6"/>
    <path id="Path_31743" data-name="Path 31743" d="M29.408,39.318v8.439a1.141,1.141,0,0,0,.57.988l7.309,4.22a1.14,1.14,0,0,0,1.14,0l7.308-4.22a1.14,1.14,0,0,0,.57-.988V39.318a1.14,1.14,0,0,0-.57-.988l-7.308-4.22a1.141,1.141,0,0,0-1.14,0l-7.309,4.22a1.14,1.14,0,0,0-.57.988" transform="translate(-27.312 -31.537)" fill="#7c898e"/>
    <path id="Path_31744" data-name="Path 31744" d="M39.16,50.176v7.637a1.14,1.14,0,0,0,.57.988l6.613,3.818a1.14,1.14,0,0,0,1.14,0L54.1,58.8a1.141,1.141,0,0,0,.57-.988V50.176a1.141,1.141,0,0,0-.57-.988L47.484,45.37a1.14,1.14,0,0,0-1.14,0L39.73,49.189a1.141,1.141,0,0,0-.57.988" transform="translate(-36.369 -41.995)" fill="#d9dde1"/>
    <path id="Path_31745" data-name="Path 31745" d="M68.916,92.179l-6.067-6.352,6.067-6.352,6.067,6.352Z" transform="translate(-58.369 -73.811)" fill="#dcdfe2"/>
    <path id="Path_31746" data-name="Path 31746" d="M68.916,79.721V81.6l-4.148,4.455H62.849Z" transform="translate(-58.369 -74.039)" fill="#e7e8f7"/>
    <path id="Path_31747" data-name="Path 31747" d="M147.964,79.721V81.6l4.148,4.455h1.917Z" transform="translate(-137.417 -74.039)" fill="#a2aeb6"/>
    <path id="Path_31748" data-name="Path 31748" d="M68.916,174.924v-1.88l-4.148-4.455H62.849Z" transform="translate(-58.369 -156.573)" fill="#7c898e"/>
    <path id="Path_31749" data-name="Path 31749" d="M147.964,174.924v-1.88l4.148-4.455h1.917Z" transform="translate(-137.417 -156.573)" fill="#6c777a"/>
  </g>
</svg>